<svg width="43" height="44" viewBox="0 0 43 44" fill="none" xmlns="http://www.w3.org/2000/svg">
<path d="M23.9867 0.815034L17.7667 11.505H39.9067C38.2735 8.60266 35.9826 6.12369 33.2177 4.26715C30.4529 2.41062 27.2913 1.22827 23.9867 0.815034ZM4.29671 9.15503L10.4567 19.835L21.5267 0.665034C18.1902 0.630279 14.8923 1.38059 11.8993 2.8554C8.90626 4.3302 6.30197 6.48816 4.29671 9.15503ZM1.68671 30.335H13.9867L2.98671 11.165C1.28104 14.0342 0.274583 17.2646 0.0487434 20.5949C-0.177096 23.9251 0.384019 27.2618 1.68671 30.335ZM18.6867 43.185L24.8567 32.495H2.76671C4.40193 35.4039 6.69864 37.8873 9.47119 39.7444C12.2437 41.6014 15.4143 42.7801 18.7267 43.185H18.6867ZM38.3367 34.845L32.2067 24.165L21.1367 43.335C24.4745 43.369 27.7735 42.6184 30.7681 41.1437C33.7626 39.669 36.3688 37.5115 38.3767 34.845H38.3367ZM40.9867 13.665H28.6467L39.7067 32.835C41.4092 29.9642 42.4121 26.733 42.6345 23.4028C42.8569 20.0725 42.2924 16.7367 40.9867 13.665Z" fill="#E60023"/>
</svg>
