<svg width="21" height="20" viewBox="0 0 21 20" fill="none" xmlns="http://www.w3.org/2000/svg">
<path fill-rule="evenodd" clip-rule="evenodd" d="M6.33329 0.91607C7.39491 0.476331 8.53275 0.25 9.68185 0.25C10.8309 0.25 11.9688 0.476331 13.0304 0.91607C14.092 1.35581 15.0566 2.00034 15.8692 2.81288C16.6817 3.62541 17.3262 4.59002 17.766 5.65165C18.2057 6.71327 18.4321 7.85111 18.4321 9.00021C18.4321 10.1493 18.2057 11.2871 17.766 12.3488C17.4222 13.1787 16.9533 13.9494 16.3767 14.6344L20.2122 18.4699C20.5051 18.7628 20.5051 19.2376 20.2122 19.5305C19.9193 19.8234 19.4444 19.8234 19.1515 19.5305L15.3161 15.6951C13.745 17.0174 11.7512 17.7504 9.68185 17.7504C7.36115 17.7504 5.1355 16.8285 3.49452 15.1875C1.85353 13.5466 0.931641 11.3209 0.931641 9.00021C0.931641 6.67951 1.85353 4.45386 3.49452 2.81288C4.30705 2.00034 5.27166 1.35581 6.33329 0.91607ZM9.68185 1.75C8.72974 1.75 7.78695 1.93753 6.90731 2.30189C6.02768 2.66625 5.22842 3.20029 4.55518 3.87354C3.1955 5.23321 2.43164 7.07733 2.43164 9.00021C2.43164 10.9231 3.1955 12.7672 4.55518 14.1269C5.91485 15.4866 7.75897 16.2504 9.68185 16.2504C11.6047 16.2504 13.4488 15.4866 14.8085 14.1269C15.4818 13.4536 16.0158 12.6544 16.3802 11.7747C16.7445 10.8951 16.9321 9.95232 16.9321 9.00021C16.9321 8.04809 16.7445 7.10531 16.3802 6.22567C16.0158 5.34604 15.4818 4.54678 14.8085 3.87354C14.1353 3.20029 13.336 2.66625 12.4564 2.30189C11.5767 1.93753 10.634 1.75 9.68185 1.75Z" fill="#D2D2D2"/>
</svg>
